# xmcd CD database file
#
# Track frame offsets:
#	150
#	49927
#	88465
#	116219
#	143429
#	177041
#	213426
#	247412
#	274924
#	302371
#
# Disc length: 4408 seconds
#
# Revision: 1
# Processed by: cddbd v1.5.1PL2 Copyright (c) Steve Scherf et al.
# Submitted via: CDex 1.51
#
DISCID=9511360a
DTITLE=World Drum Trio - Journey with Friends
DYEAR=1999
DGENRE=Jazz
TTITLE0=International Rhumba
TTITLE1=Freedance
TTITLE2=Brothers
TTITLE3=South Indian Style
TTITLE4=Grandmaster
TTITLE5=Mandals
TTITLE6=Elefance
TTITLE7=M'ba
TTITLE8=Ten Fingers
TTITLE9=Elefance in Dub
EXTD=YEAR: 1999
EXTT0=
EXTT1=
EXTT2=
EXTT3=
EXTT4=
EXTT5=
EXTT6=
EXTT7=
EXTT8=
EXTT9=
PLAYORDER=
